<svg xmlns="http://www.w3.org/2000/svg" width="1416" height="346" fill="none"><path fill="#fff" d="M456.785 110.59c-17.939-9.376-38.696-14.017-62.176-14.017s-43.861 5.157-61.941 15.47c-18.127 10.314-32.168 24.753-42.17 43.271-10.003 18.564-15.028 40.504-15.028 65.866s5.166 46.552 15.497 65.398c10.332 18.893 25.03 33.379 44.096 43.552s41.466 15.236 67.201 15.236c19.066 0 36.394-3.657 51.938-10.923 15.544-7.313 28.176-17.346 37.897-30.191 9.674-12.845 16.108-27.378 19.301-43.552h-51.938c-3.522 13.642-10.66 24.191-21.461 31.644-10.801 7.454-24.138 11.158-40.011 11.158-13.055 0-24.607-2.86-34.797-8.579-10.191-5.72-18.127-13.736-23.809-24.003-5.73-10.313-8.876-22.408-9.533-36.379v-2.859h183.944c.329-3.188.563-6.423.704-9.751.141-3.329.235-6.423.235-9.283-.329-23.487-5.541-44.02-15.732-61.6s-24.231-31.082-42.17-40.458zm-125.103 83.963c1.268-11.439 5.025-21.425 11.177-29.957q9.297-12.868 23.104-19.971c9.204-4.782 19.395-7.126 30.478-7.126 18.126 0 33.107 4.923 45.035 14.768q17.892 14.766 20.709 42.332h-130.55zm380.192-83.963c-17.939-9.376-38.695-14.017-62.175-14.017-23.481 0-43.862 5.157-61.941 15.47-18.127 10.314-32.168 24.753-42.171 43.271-10.002 18.564-15.027 40.504-15.027 65.866s5.165 46.552 15.497 65.398c10.331 18.893 25.03 33.379 44.096 43.552s41.466 15.236 67.2 15.236c19.066 0 36.394-3.657 51.938-10.923 15.544-7.313 28.177-17.346 37.898-30.191 9.673-12.845 16.107-27.378 19.3-43.552h-51.938c-3.522 13.642-10.66 24.191-21.461 31.644-10.801 7.454-24.138 11.158-40.01 11.158-13.055 0-24.608-2.86-34.798-8.579s-18.127-13.736-23.809-24.003c-5.729-10.313-8.876-22.408-9.533-36.379v-2.859h183.944c.329-3.188.564-6.423.705-9.751.141-3.329.234-6.423.234-9.283-.328-23.487-5.541-44.02-15.731-61.6-10.191-17.58-24.232-31.082-42.171-40.458zm-125.103 83.963c1.268-11.439 5.025-21.425 11.177-29.957q9.298-12.868 23.105-19.971c9.204-4.782 19.394-7.126 30.477-7.126 18.127 0 33.107 4.923 45.035 14.768q17.892 14.766 20.71 42.332h-130.55zm592.219-83.963c-17.94-9.376-38.69-14.017-62.18-14.017-23.48 0-43.86 5.157-61.94 15.47-18.12 10.314-32.16 24.753-42.17 43.271-10 18.564-15.024 40.504-15.024 65.866s5.164 46.552 15.494 65.398c10.33 18.893 25.03 33.379 44.1 43.552 19.06 10.173 41.46 15.236 67.2 15.236 19.07 0 36.39-3.657 51.94-10.923 15.54-7.313 28.17-17.346 37.89-30.191 9.68-12.845 16.11-27.378 19.31-43.552h-51.94c-3.52 13.642-10.66 24.191-21.46 31.644-10.8 7.454-24.14 11.158-40.01 11.158-13.06 0-24.61-2.86-34.8-8.579s-18.13-13.736-23.81-24.003c-5.73-10.313-8.88-22.408-9.53-36.379v-2.859H1236c.33-3.188.56-6.423.7-9.751.15-3.329.24-6.423.24-9.283-.33-23.487-5.54-44.02-15.73-61.6s-24.23-31.082-42.17-40.458zm-125.06 83.963c1.27-11.439 5.03-21.425 11.18-29.957 6.2-8.579 13.9-15.236 23.11-19.971 9.2-4.782 19.39-7.126 30.47-7.126 18.13 0 33.11 4.923 45.04 14.768 11.93 9.844 18.83 23.955 20.71 42.332h-130.55zM1416 99.433v47.114h-104.49v196.006h-51.75V166.799c0-40.504 28.93-67.366 69.5-67.366zM914.556 219.774 1028.9 342.037l-66.726.469-90.352-99.433h-29.82v99.433h-51.938V0h51.938v195.537h30.712l89.46-98.495 66.726.469zm-671.77-26.628c10.002 12.705 15.027 29.347 15.027 49.974 0 19.362-5.306 36.801-15.966 52.319q-15.99 23.346-44.096 36.144c-18.738 8.579-40.011 12.845-63.867 12.845-26.391 0-49.543-4.688-69.595-14.017-20.005-9.329-35.596-22.596-46.679-39.707Q.915 265.036 0 232.197l53.394.469c1.597 19.69 9.674 35.535 24.326 47.583 14.604 12.049 33.529 18.096 56.728 18.096 20.334 0 36.77-4.266 49.308-12.845 12.539-8.579 18.832-20.768 18.832-36.613 0-11.111-3.522-19.971-10.473-26.628-6.997-6.657-16.201-11.58-27.659-14.768-11.459-3.187-28.13-6.797-50.013-10.923l-2.395-.468c-20.663-3.47-38.602-8.392-53.864-14.768q-22.894-9.492-36.91-28.55c-9.393-12.657-14.042-29.159-14.042-49.458 0-19.034 5.025-36.004 15.027-50.912 10.003-14.908 24.044-26.487 42.17-34.738 18.128-8.251 38.602-12.377 61.472-12.377s45.129 4.36 63.866 13.08 33.53 20.909 44.331 36.613 16.53 33.52 17.141 53.537h-53.394c-2.208-17.11-9.862-30.847-22.87-41.16-13.008-10.314-29.397-15.47-49.074-15.47-19.676 0-35.267 4.125-46.679 12.376-11.458 8.25-17.14 19.97-17.14 35.207 0 11.11 3.428 19.689 10.237 25.69 6.81 6.047 15.967 10.782 27.378 14.251 11.459 3.517 27.66 7.126 48.604 10.924h.47c21.602 3.797 40.198 8.719 55.742 14.767 15.544 6.047 28.364 15.376 38.367 28.081z" style="fill:#fff;fill-opacity:1"/><path fill="url(#a)" fill-opacity=".2" d="M456.785 110.59c-17.939-9.376-38.696-14.017-62.176-14.017s-43.861 5.157-61.941 15.47c-18.127 10.314-32.168 24.753-42.17 43.271-10.003 18.564-15.028 40.504-15.028 65.866s5.166 46.552 15.497 65.398c10.332 18.893 25.03 33.379 44.096 43.552s41.466 15.236 67.201 15.236c19.066 0 36.394-3.657 51.938-10.923 15.544-7.313 28.176-17.346 37.897-30.191 9.674-12.845 16.108-27.378 19.301-43.552h-51.938c-3.522 13.642-10.66 24.191-21.461 31.644-10.801 7.454-24.138 11.158-40.011 11.158-13.055 0-24.607-2.86-34.797-8.579-10.191-5.72-18.127-13.736-23.809-24.003-5.73-10.313-8.876-22.408-9.533-36.379v-2.859h183.944c.329-3.188.563-6.423.704-9.751.141-3.329.235-6.423.235-9.283-.329-23.487-5.541-44.02-15.732-61.6s-24.231-31.082-42.17-40.458zm-125.103 83.963c1.268-11.439 5.025-21.425 11.177-29.957q9.297-12.868 23.104-19.971c9.204-4.782 19.395-7.126 30.478-7.126 18.126 0 33.107 4.923 45.035 14.768q17.892 14.766 20.709 42.332h-130.55zm380.192-83.963c-17.939-9.376-38.695-14.017-62.175-14.017-23.481 0-43.862 5.157-61.941 15.47-18.127 10.314-32.168 24.753-42.171 43.271-10.002 18.564-15.027 40.504-15.027 65.866s5.165 46.552 15.497 65.398c10.331 18.893 25.03 33.379 44.096 43.552s41.466 15.236 67.2 15.236c19.066 0 36.394-3.657 51.938-10.923 15.544-7.313 28.177-17.346 37.898-30.191 9.673-12.845 16.107-27.378 19.3-43.552h-51.938c-3.522 13.642-10.66 24.191-21.461 31.644-10.801 7.454-24.138 11.158-40.01 11.158-13.055 0-24.608-2.86-34.798-8.579s-18.127-13.736-23.809-24.003c-5.729-10.313-8.876-22.408-9.533-36.379v-2.859h183.944c.329-3.188.564-6.423.705-9.751.141-3.329.234-6.423.234-9.283-.328-23.487-5.541-44.02-15.731-61.6-10.191-17.58-24.232-31.082-42.171-40.458zm-125.103 83.963c1.268-11.439 5.025-21.425 11.177-29.957q9.298-12.868 23.105-19.971c9.204-4.782 19.394-7.126 30.477-7.126 18.127 0 33.107 4.923 45.035 14.768q17.892 14.766 20.71 42.332h-130.55zm592.219-83.963c-17.94-9.376-38.69-14.017-62.18-14.017-23.48 0-43.86 5.157-61.94 15.47-18.12 10.314-32.16 24.753-42.17 43.271-10 18.564-15.024 40.504-15.024 65.866s5.164 46.552 15.494 65.398c10.33 18.893 25.03 33.379 44.1 43.552 19.06 10.173 41.46 15.236 67.2 15.236 19.07 0 36.39-3.657 51.94-10.923 15.54-7.313 28.17-17.346 37.89-30.191 9.68-12.845 16.11-27.378 19.31-43.552h-51.94c-3.52 13.642-10.66 24.191-21.46 31.644-10.8 7.454-24.14 11.158-40.01 11.158-13.06 0-24.61-2.86-34.8-8.579s-18.13-13.736-23.81-24.003c-5.73-10.313-8.88-22.408-9.53-36.379v-2.859H1236c.33-3.188.56-6.423.7-9.751.15-3.329.24-6.423.24-9.283-.33-23.487-5.54-44.02-15.73-61.6s-24.23-31.082-42.17-40.458zm-125.06 83.963c1.27-11.439 5.03-21.425 11.18-29.957 6.2-8.579 13.9-15.236 23.11-19.971 9.2-4.782 19.39-7.126 30.47-7.126 18.13 0 33.11 4.923 45.04 14.768 11.93 9.844 18.83 23.955 20.71 42.332h-130.55zM1416 99.433v47.114h-104.49v196.006h-51.75V166.799c0-40.504 28.93-67.366 69.5-67.366zM914.556 219.774 1028.9 342.037l-66.726.469-90.352-99.433h-29.82v99.433h-51.938V0h51.938v195.537h30.712l89.46-98.495 66.726.469zm-671.77-26.628c10.002 12.705 15.027 29.347 15.027 49.974 0 19.362-5.306 36.801-15.966 52.319q-15.99 23.346-44.096 36.144c-18.738 8.579-40.011 12.845-63.867 12.845-26.391 0-49.543-4.688-69.595-14.017-20.005-9.329-35.596-22.596-46.679-39.707Q.915 265.036 0 232.197l53.394.469c1.597 19.69 9.674 35.535 24.326 47.583 14.604 12.049 33.529 18.096 56.728 18.096 20.334 0 36.77-4.266 49.308-12.845 12.539-8.579 18.832-20.768 18.832-36.613 0-11.111-3.522-19.971-10.473-26.628-6.997-6.657-16.201-11.58-27.659-14.768-11.459-3.187-28.13-6.797-50.013-10.923l-2.395-.468c-20.663-3.47-38.602-8.392-53.864-14.768q-22.894-9.492-36.91-28.55c-9.393-12.657-14.042-29.159-14.042-49.458 0-19.034 5.025-36.004 15.027-50.912 10.003-14.908 24.044-26.487 42.17-34.738 18.128-8.251 38.602-12.377 61.472-12.377s45.129 4.36 63.866 13.08 33.53 20.909 44.331 36.613 16.53 33.52 17.141 53.537h-53.394c-2.208-17.11-9.862-30.847-22.87-41.16-13.008-10.314-29.397-15.47-49.074-15.47-19.676 0-35.267 4.125-46.679 12.376-11.458 8.25-17.14 19.97-17.14 35.207 0 11.11 3.428 19.689 10.237 25.69 6.81 6.047 15.967 10.782 27.378 14.251 11.459 3.517 27.66 7.126 48.604 10.924h.47c21.602 3.797 40.198 8.719 55.742 14.767 15.544 6.047 28.364 15.376 38.367 28.081z"/><defs><linearGradient id="a" x1="708" x2="708" y1="184.457" y2="345.366" gradientUnits="userSpaceOnUse"><stop stop-opacity="0" style="stop-color:none;stop-opacity:0"/><stop offset="1" style="stop-color:black;stop-opacity:1"/></linearGradient></defs></svg>